#!OML:ASF E:\emotionWalksFemale\Project 1\Capture day 1\Session 1\Female1.ASF
:FULLY-SPECIFIED
:DEGREES
319
root 8.50134 15.1894 14.1881 -178.417 0.354113 -174.014
lowerback 7.37082 2.01724 4.88166
upperback -3.93959 3.33741 0.31313
thorax -8.05261 1.40738 -2.87953
lowerneck -4.32259 -2.95147 -6.00686
upperneck 7.91188 -3.94466 3.89408
head 3.58254 -2.03197 2.18189
rclavicle 2.57675e-014 2.10712e-014
rhumerus -32.3214 16.0612 -91.5438
rradius 35.4339
rwrist 14.9996
rhand -2.53584 -50.9469
rfingers 7.12502
rthumb 23.1594 -79.5747
lclavicle 2.57675e-014 2.10712e-014
lhumerus -42.7218 -2.53379 87.9868
lradius 38.0029
lwrist -11.3914
lhand -8.8249 -35.4377
lfingers 7.12502
lthumb 17.115 -6.17153
rfemur 15.5133 10.1141 38.6522
rtibia 9.54166e-015
rfoot -12.4389 -27.7454
rtoes 15.7834
lfemur -34.798 -15.7133 -12.0142
ltibia 28.8303
lfoot -19.9116 20.1563
ltoes -11.3545
320
root 8.49657 15.1756 14.0568 -178.387 0.631673 -173.905
lowerback 7.34143 2.08622 5.03658
upperback -3.93957 3.4457 0.312075
thorax -8.01879 1.45341 -2.97987
lowerneck -4.58569 -2.96984 -5.61905
upperneck 8.13555 -3.95404 3.47001
head 3.68556 -2.04062 1.9641
rclavicle 1.12313e-014 -8.34896e-015
rhumerus -32.1034 16.1402 -91.7273
rradius 35.3716
rwrist 14.9268
rhand -2.30778 -50.8349
rfingers 7.12502
rthumb 23.3782 -79.435
lclavicle 1.12313e-014 -8.34896e-015
lhumerus -42.8289 -2.54646 87.8922
lradius 37.7876
lwrist -11.679
lhand -8.0515 -35.4949
lfingers 7.12502
lthumb 17.8593 -6.2949
rfemur 16.0046 9.90848 38.7653
rtibia -4.13472e-014
rfoot -12.6129 -27.521
rtoes 15.6704
lfemur -34.9582 -18.1148 -10.6404
ltibia 27.5973
lfoot -21.202 21.9273
ltoes -8.59525
321
root 8.48962 15.1673 13.9259 -178.343 0.958767 -173.811
lowerback 7.2377 2.14035 5.10904
upperback -3.89039 3.5238 0.382616
thorax -7.89924 1.49518 -2.94902
lowerneck -4.76251 -2.90129 -5.57398
upperneck 8.19542 -3.84953 3.40752
head 3.73209 -1.98809 1.93872
rclavicle 6.68413e-015 -1.19271e-014
rhumerus -31.7998 16.5655 -91.9016
rradius 35.0595
rwrist 15.4825
rhand -2.5539 -50.6557
rfingers 7.12502
rthumb 23.142 -79.2857
lclavicle 6.68413e-015 -1.19271e-014
lhumerus -42.7531 -2.37734 87.8692
lradius 37.3666
lwrist -11.841
lhand -7.03678 -35.2902
lfingers 7.12502
lthumb 18.8354 -6.18211
rfemur 16.4876 9.75322 38.8617
rtibia -9.54166e-015
rfoot -12.7217 -27.4058
rtoes 15.4866
lfemur -35.2275 -20.8295 -9.08256
ltibia 26.6203
lfoot -22.9086 23.9302
ltoes -5.05153
322
root 8.48048 15.1665 13.7979 -178.226 1.2337 -173.776
lowerback 7.10512 2.15781 5.13347
upperback -3.9014 3.55033 0.445341
thorax -7.83458 1.51253 -2.89339
lowerneck -4.67653 -2.77759 -5.58864
upperneck 8.11534 -3.68542 3.41997
head 3.67927 -1.90676 1.95449
rclavicle -4.36084e-014 2.78299e-015
rhumerus -31.4922 16.7898 -91.9728
rradius 34.9333
rwrist 15.5399
rhand -2.32036 -51.0248
rfingers 7.12502
rthumb 23.3661 -79.6265
lclavicle -4.36084e-014 2.78299e-015
lhumerus -42.7325 -2.28083 87.8102
lradius 36.9744
lwrist -11.9193
lhand -6.67722 -35.4193
lfingers 7.12502
lthumb 19.1812 -6.34516
rfemur 16.8686 9.57441 38.8639
rtibia 1.90833e-014
rfoot -12.7079 -27.2665
rtoes 15.4778
lfemur -35.6909 -23.6503 -7.46655
ltibia 25.8372
lfoot -24.544 26.1381
ltoes -1.06028
323
root 8.47225 15.1555 13.6667 -178.112 1.46475 -173.736
lowerback 6.99124 2.16393 5.21065
upperback -3.99735 3.57027 0.450829
thorax -7.86696 1.5186 -2.93037
lowerneck -4.37096 -2.63661 -5.50838
upperneck 7.9899 -3.52112 3.43977
head 3.5652 -1.82525 1.95627
rclavicle -3.79927e-014 -1.66979e-014
rhumerus -31.3263 16.8317 -92.1278
rradius 34.578
rwrist 15.8486
rhand -2.4429 -50.859
rfingers 7.12502
rthumb 23.2485 -79.4756
lclavicle -3.79927e-014 -1.66979e-014
lhumerus -42.8445 -2.02075 87.5225
lradius 36.5628
lwrist -12.3411
lhand -6.72374 -35.9093
lfingers 7.12502
lthumb 19.1365 -6.83079
rfemur 17.3086 9.35371 38.8661
rtibia -1.59028e-014
rfoot -12.8252 -27.0187
rtoes 15.7669
lfemur -36.2493 -26.4442 -5.81676
ltibia 25.2078
lfoot -26.5815 28.3265
ltoes 3.50313
324
root 8.46477 15.1366 13.5299 -178.032 1.70742 -173.696
lowerback 6.91383 2.18536 5.27122
upperback -4.08458 3.60985 0.45331
thorax -7.91012 1.5344 -2.96532
lowerneck -4.1965 -2.49715 -5.4558
upperneck 7.91829 -3.35244 3.49704
head 3.49761 -1.73989 1.97489
rclavicle -1.06598e-014 -3.97569e-016
rhumerus -31.1346 16.8055 -92.2718
rradius 34.101
rwrist 16.1305
rhand -2.59685 -50.7311
rfingers 7.12502
rthumb 23.1008 -79.3663
lclavicle -1.06598e-014 -3.97569e-016
lhumerus -42.9876 -1.72425 87.2694
lradius 36.1769
lwrist -12.8117
lhand -6.90669 -36.1068
lfingers 7.12502
lthumb 18.9606 -7.01093
rfemur 17.8317 9.13389 38.8673
rtibia 2.22639e-014
rfoot -12.8202 -26.7985
rtoes 15.7266
lfemur -36.7274 -28.8031 -4.38185
ltibia 24.7191
lfoot -28.8802 30.133
ltoes 7.60157
325
root 8.45545 15.1215 13.3932 -177.905 2.02498 -173.675
lowerback 6.79535 2.20869 5.25836
upperback -4.13238 3.64315 0.50423
thorax -7.89413 1.55511 -2.90399
lowerneck -4.31704 -2.37147 -5.49124
upperneck 7.9784 -3.1745 3.48916
head 3.53334 -1.65243 1.98678
rclavicle -1.9953e-014 -9.54166e-015
rhumerus -30.9213 16.9141 -92.3829
rradius 33.6745
rwrist 16.554
rhand -2.69315 -50.7675
rfingers 7.12502
rthumb 23.0084 -79.4142
lclavicle -1.9953e-014 -9.54166e-015
lhumerus -43.1807 -1.4415 87.1244
lradius 35.9977
lwrist -13.0266
lhand -7.24128 -36.244
lfingers 7.12502
lthumb 18.6388 -7.1169
rfemur 18.2584 9.00502 38.818
rtibia 0
rfoot -12.4697 -26.6529
rtoes 14.5004
lfemur -37.0608 -30.3003 -3.40334
ltibia 24.4042
lfoot -31.4497 31.1166
ltoes 12.1534
326
root 8.44511 15.1179 13.2524 -177.796 2.40506 -173.753
lowerback 6.63383 2.24925 5.18451
upperback -4.1818 3.68454 0.49776
thorax -7.85343 1.58148 -2.86769
lowerneck -4.49558 -2.2787 -5.51902
upperneck 8.17085 -3.04822 3.51747
head 3.63016 -1.59126 2.00772
rclavicle -2.01021e-014 -5.1684e-015
rhumerus -30.8053 16.9401 -92.5438
rradius 33.3054
rwrist 17.0332
rhand -2.91534 -50.6159
rfingers 7.12502
rthumb 22.7952 -79.2891
lclavicle -2.01021e-014 -5.1684e-015
lhumerus -43.4221 -1.14561 86.8768
lradius 35.786
lwrist -13.2456
lhand -7.68726 -36.7352
lfingers 7.12502
lthumb 18.2097 -7.56755
rfemur 18.7041 8.93401 38.6435
rtibia 1.27222e-014
rfoot -11.7964 -26.476
rtoes 12.6754
lfemur -37.203 -31.6394 -2.72431
ltibia 24.2205
lfoot -33.9602 31.768
ltoes 16.4225
327
root 8.43312 15.1149 13.1112 -177.716 2.70345 -173.792
lowerback 6.49702 2.28712 5.21097
upperback -4.24853 3.7329 0.458001
thorax -7.83778 1.60383 -2.9249
lowerneck -4.54711 -2.23354 -5.40576
upperneck 8.35792 -3.00311 3.49917
head 3.69975 -1.57003 1.9836
rclavicle -4.55465e-014 -1.23246e-014
rhumerus -30.7625 16.6979 -92.6719
rradius 33.0271
rwrist 17.2768
rhand -2.88185 -50.6418
rfingers 7.12502
rthumb 22.8274 -79.3109
lclavicle -4.55465e-014 -1.23246e-014
lhumerus -43.5579 -0.930724 86.6149
lradius 35.3472
lwrist -13.5332
lhand -7.58607 -36.2651
lfingers 7.12502
lthumb 18.3071 -7.10659
rfemur 19.2114 8.78154 38.4909
rtibia 4.77083e-014
rfoot -11.0758 -26.2051
rtoes 11.4728
lfemur -37.3586 -33.2061 -2.00942
ltibia 24.2056
lfoot -35.6837 32.6136
ltoes 19.2757
328
root 8.42244 15.1171 12.9744 -177.606 2.97031 -173.771
lowerback 6.3295 2.31626 5.22713
upperback -4.28024 3.77151 0.493752
thorax -7.77284 1.62698 -2.89275
lowerneck -4.54828 -2.17352 -5.27607
upperneck 8.40153 -2.92057 3.33508
head 3.70306 -1.53258 1.9082
rclavicle 1.76421e-014 -1.74931e-014
rhumerus -30.6183 16.5136 -92.7005
rradius 32.6771
rwrist 17.5186
rhand -2.48078 -50.9243
rfingers 7.12502
rthumb 23.2122 -79.5455
lclavicle 1.76421e-014 -1.74931e-014
lhumerus -43.5954 -0.650825 86.4375
lradius 34.9445
lwrist -13.9117
lhand -5.80004 -33.258
lfingers 7.12502
lthumb 20.0246 -4.26987
rfemur 19.649 8.61598 38.37
rtibia -5.08889e-014
rfoot -10.3982 -25.8545
rtoes 10.1135
lfemur -36.6188 -31.124 -3.26034
ltibia 24.3597
lfoot -33.2601 31.7061
ltoes 16.2442
